<mxfile host="65bd71144e">
    <diagram id="L2CL2NuOrNJwtM9DQiR1" name="Page-1">
        <mxGraphModel dx="744" dy="487" grid="1" gridSize="10" guides="1" tooltips="1" connect="1" arrows="1" fold="1" page="1" pageScale="1" pageWidth="850" pageHeight="1100" math="0" shadow="0">
            <root>
                <mxCell id="0"/>
                <mxCell id="1" parent="0"/>
                <mxCell id="2" value="AS.." style="text;strokeColor=none;align=center;fillColor=none;html=1;verticalAlign=middle;whiteSpace=wrap;rounded=0;strokeWidth=0;fontSize=350;fontColor=#9933FF;fontFamily=Garamond;textShadow=1;fontStyle=1" parent="1" vertex="1">
                    <mxGeometry x="50" y="90" width="610" height="260" as="geometry"/>
                </mxCell>
            </root>
        </mxGraphModel>
    </diagram>
</mxfile>